<mxfile host="65bd71144e">
    <diagram id="2qPXYAuxw-avHiOYqt1N" name="第 1 页">
        <mxGraphModel dx="3032" dy="787" grid="1" gridSize="10" guides="1" tooltips="1" connect="1" arrows="1" fold="1" page="1" pageScale="1" pageWidth="827" pageHeight="1169" math="0" shadow="0">
            <root>
                <mxCell id="0"/>
                <mxCell id="1" parent="0"/>
                <mxCell id="2" value="每日钉钉播报：&lt;br&gt;日安：简单的天气信息&lt;br&gt;详细播报的链接" style="text;html=1;strokeColor=none;fillColor=none;align=center;verticalAlign=middle;whiteSpace=wrap;rounded=0;" parent="1" vertex="1">
                    <mxGeometry x="30" y="80" width="280" height="120" as="geometry"/>
                </mxCell>
                <mxCell id="10" value="前端页面" style="swimlane;whiteSpace=wrap;html=1;" parent="1" vertex="1">
                    <mxGeometry x="350" y="20" width="310" height="350" as="geometry"/>
                </mxCell>
                <mxCell id="12" value="date1" style="rounded=0;whiteSpace=wrap;html=1;" parent="10" vertex="1">
                    <mxGeometry x="20" y="40" width="80" height="30" as="geometry"/>
                </mxCell>
                <mxCell id="13" value="date2" style="rounded=0;whiteSpace=wrap;html=1;" parent="10" vertex="1">
                    <mxGeometry x="20" y="80" width="80" height="30" as="geometry"/>
                </mxCell>
                <mxCell id="14" value="date3" style="rounded=0;whiteSpace=wrap;html=1;" parent="10" vertex="1">
                    <mxGeometry x="20" y="120" width="80" height="30" as="geometry"/>
                </mxCell>
                <mxCell id="15" value="" style="rounded=0;whiteSpace=wrap;html=1;" parent="10" vertex="1">
                    <mxGeometry x="130" y="40" width="150" height="270" as="geometry"/>
                </mxCell>
                <mxCell id="89" value="全量，除了日期" style="rounded=0;whiteSpace=wrap;html=1;" parent="10" vertex="1">
                    <mxGeometry x="20" y="280" width="80" height="30" as="geometry"/>
                </mxCell>
                <mxCell id="16" value="前端send" style="swimlane;whiteSpace=wrap;html=1;" parent="1" vertex="1">
                    <mxGeometry x="20" y="430" width="260" height="280" as="geometry"/>
                </mxCell>
                <mxCell id="18" value="查询所有日期" style="rounded=0;whiteSpace=wrap;html=1;" parent="16" vertex="1">
                    <mxGeometry x="70" y="40" width="80" height="40" as="geometry"/>
                </mxCell>
                <mxCell id="20" value="查询对应日期的数据" style="rounded=0;whiteSpace=wrap;html=1;" parent="16" vertex="1">
                    <mxGeometry x="69.99999999999989" y="110" width="80" height="40" as="geometry"/>
                </mxCell>
                <mxCell id="56" value="访问全量数据" style="rounded=0;whiteSpace=wrap;html=1;" parent="16" vertex="1">
                    <mxGeometry x="69.99999999999989" y="230" width="80" height="40" as="geometry"/>
                </mxCell>
                <mxCell id="21" value="后端" style="swimlane;whiteSpace=wrap;html=1;" parent="1" vertex="1">
                    <mxGeometry x="430" y="430" width="1140" height="620" as="geometry"/>
                </mxCell>
                <mxCell id="24" style="edgeStyle=none;html=1;" parent="21" source="22" target="23" edge="1">
                    <mxGeometry relative="1" as="geometry"/>
                </mxCell>
                <mxCell id="22" value="查询全量数据" style="rounded=0;whiteSpace=wrap;html=1;" parent="21" vertex="1">
                    <mxGeometry x="39.999999999999886" y="40" width="80" height="40" as="geometry"/>
                </mxCell>
                <mxCell id="23" value="访问xstorage" style="rounded=0;whiteSpace=wrap;html=1;" parent="21" vertex="1">
                    <mxGeometry x="170" y="40" width="80" height="40" as="geometry"/>
                </mxCell>
                <mxCell id="29" value="" style="edgeStyle=none;html=1;" parent="21" source="25" target="28" edge="1">
                    <mxGeometry relative="1" as="geometry"/>
                </mxCell>
                <mxCell id="25" value="查询对应日期的数据" style="rounded=0;whiteSpace=wrap;html=1;" parent="21" vertex="1">
                    <mxGeometry x="40" y="110" width="80" height="40" as="geometry"/>
                </mxCell>
                <mxCell id="34" value="如果没有" style="edgeStyle=none;html=1;" parent="21" source="28" target="33" edge="1">
                    <mxGeometry relative="1" as="geometry"/>
                </mxCell>
                <mxCell id="28" value="查询当前日报" style="rounded=0;whiteSpace=wrap;html=1;" parent="21" vertex="1">
                    <mxGeometry x="170" y="110" width="80" height="40" as="geometry"/>
                </mxCell>
                <mxCell id="37" value="" style="edgeStyle=none;html=1;" parent="21" source="33" target="36" edge="1">
                    <mxGeometry relative="1" as="geometry"/>
                </mxCell>
                <mxCell id="51" style="edgeStyle=none;html=1;entryX=0;entryY=0.5;entryDx=0;entryDy=0;" parent="21" source="33" target="49" edge="1">
                    <mxGeometry relative="1" as="geometry"/>
                </mxCell>
                <mxCell id="52" style="edgeStyle=none;html=1;entryX=0;entryY=0.5;entryDx=0;entryDy=0;" parent="21" source="33" target="50" edge="1">
                    <mxGeometry relative="1" as="geometry"/>
                </mxCell>
                <mxCell id="54" style="edgeStyle=none;html=1;" parent="21" source="33" target="53" edge="1">
                    <mxGeometry relative="1" as="geometry"/>
                </mxCell>
                <mxCell id="65" style="edgeStyle=none;html=1;entryX=0.5;entryY=0;entryDx=0;entryDy=0;" parent="21" source="33" target="66" edge="1">
                    <mxGeometry relative="1" as="geometry"/>
                </mxCell>
                <mxCell id="74" style="edgeStyle=none;html=1;entryX=0;entryY=0.5;entryDx=0;entryDy=0;" parent="21" source="33" target="73" edge="1">
                    <mxGeometry relative="1" as="geometry"/>
                </mxCell>
                <mxCell id="33" value="查询当前日报" style="rounded=0;whiteSpace=wrap;html=1;" parent="21" vertex="1">
                    <mxGeometry x="426" y="110" width="80" height="40" as="geometry"/>
                </mxCell>
                <mxCell id="36" value="获取谷歌新闻&lt;br&gt;keys,lan-&amp;gt;map[key]googlenews" style="rounded=0;whiteSpace=wrap;html=1;" parent="21" vertex="1">
                    <mxGeometry x="616" y="100" width="174" height="60" as="geometry"/>
                </mxCell>
                <mxCell id="45" style="edgeStyle=none;html=1;entryX=0.42;entryY=-0.05;entryDx=0;entryDy=0;entryPerimeter=0;" parent="21" source="41" target="36" edge="1">
                    <mxGeometry relative="1" as="geometry"/>
                </mxCell>
                <mxCell id="41" value="keys" style="rounded=1;whiteSpace=wrap;html=1;" parent="21" vertex="1">
                    <mxGeometry x="646" y="40" width="90" height="40" as="geometry"/>
                </mxCell>
                <mxCell id="43" value="删除所有百度相关的key并转移keys" style="rounded=0;whiteSpace=wrap;html=1;" parent="21" vertex="1">
                    <mxGeometry x="40" y="420" width="80" height="40" as="geometry"/>
                </mxCell>
                <mxCell id="48" value="" style="edgeStyle=none;html=1;" parent="21" source="47" target="43" edge="1">
                    <mxGeometry relative="1" as="geometry"/>
                </mxCell>
                <mxCell id="47" value="通过前端特殊按键关联" style="text;html=1;strokeColor=none;fillColor=none;align=center;verticalAlign=middle;whiteSpace=wrap;rounded=0;" parent="21" vertex="1">
                    <mxGeometry x="320" y="425" width="60" height="30" as="geometry"/>
                </mxCell>
                <mxCell id="49" value="获取今日nyt新闻&lt;br&gt;[]nytnews" style="rounded=0;whiteSpace=wrap;html=1;" parent="21" vertex="1">
                    <mxGeometry x="616" y="190" width="174" height="60" as="geometry"/>
                </mxCell>
                <mxCell id="50" value="获取bbc中文新闻&lt;br&gt;[]bbczhnews" style="rounded=0;whiteSpace=wrap;html=1;" parent="21" vertex="1">
                    <mxGeometry x="616" y="290" width="174" height="60" as="geometry"/>
                </mxCell>
                <mxCell id="58" value="" style="edgeStyle=none;html=1;" parent="21" source="53" target="57" edge="1">
                    <mxGeometry relative="1" as="geometry"/>
                </mxCell>
                <mxCell id="53" value="ai进行翻译" style="rounded=0;whiteSpace=wrap;html=1;" parent="21" vertex="1">
                    <mxGeometry x="426" y="260" width="80" height="40" as="geometry"/>
                </mxCell>
                <mxCell id="59" style="edgeStyle=none;html=1;entryX=0.5;entryY=1;entryDx=0;entryDy=0;" parent="21" source="57" target="28" edge="1">
                    <mxGeometry relative="1" as="geometry"/>
                </mxCell>
                <mxCell id="57" value="插入数据到xstorage" style="rounded=0;whiteSpace=wrap;html=1;" parent="21" vertex="1">
                    <mxGeometry x="266" y="260" width="80" height="40" as="geometry"/>
                </mxCell>
                <mxCell id="63" style="edgeStyle=none;html=1;" parent="21" source="60" target="33" edge="1">
                    <mxGeometry relative="1" as="geometry"/>
                </mxCell>
                <mxCell id="60" value="每天七点，启动" style="rounded=0;whiteSpace=wrap;html=1;" parent="21" vertex="1">
                    <mxGeometry x="39.999999999999886" y="250" width="80" height="40" as="geometry"/>
                </mxCell>
                <mxCell id="66" value="推送到dingding" style="rounded=0;whiteSpace=wrap;html=1;" parent="21" vertex="1">
                    <mxGeometry x="39.999999999999886" y="320" width="80" height="40" as="geometry"/>
                </mxCell>
                <mxCell id="67" value="日安：&lt;br&gt;新闻摘要，天气摘要&lt;br&gt;详情访问" style="text;html=1;strokeColor=none;fillColor=none;align=center;verticalAlign=middle;whiteSpace=wrap;rounded=0;" parent="21" vertex="1">
                    <mxGeometry x="190" y="325" width="120" height="35" as="geometry"/>
                </mxCell>
                <mxCell id="71" style="edgeStyle=none;html=1;entryX=1;entryY=0.5;entryDx=0;entryDy=0;dashed=1;" parent="21" source="67" target="66" edge="1">
                    <mxGeometry relative="1" as="geometry">
                        <mxPoint x="200" y="341.3461538461538" as="sourcePoint"/>
                        <mxPoint x="130" y="340" as="targetPoint"/>
                    </mxGeometry>
                </mxCell>
                <mxCell id="73" value="weather api" style="rounded=0;whiteSpace=wrap;html=1;" parent="21" vertex="1">
                    <mxGeometry x="620" y="390" width="174" height="60" as="geometry"/>
                </mxCell>
                <mxCell id="77" style="edgeStyle=none;html=1;" parent="21" source="75" target="73" edge="1">
                    <mxGeometry relative="1" as="geometry"/>
                </mxCell>
                <mxCell id="78" style="edgeStyle=none;html=1;" parent="21" source="75" target="50" edge="1">
                    <mxGeometry relative="1" as="geometry"/>
                </mxCell>
                <mxCell id="79" style="edgeStyle=none;html=1;entryX=0;entryY=0.75;entryDx=0;entryDy=0;" parent="21" source="75" target="49" edge="1">
                    <mxGeometry relative="1" as="geometry"/>
                </mxCell>
                <mxCell id="80" style="edgeStyle=none;html=1;entryX=0;entryY=0.75;entryDx=0;entryDy=0;" parent="21" source="75" target="36" edge="1">
                    <mxGeometry relative="1" as="geometry"/>
                </mxCell>
                <mxCell id="75" value="访问全量数据" style="rounded=0;whiteSpace=wrap;html=1;" parent="21" vertex="1">
                    <mxGeometry x="280" y="550" width="80" height="40" as="geometry"/>
                </mxCell>
                <mxCell id="83" value="为了避免前一天的news尚未完全更新，所以查询前一天的数据摘出过去没有的" style="text;html=1;strokeColor=none;fillColor=none;align=center;verticalAlign=middle;whiteSpace=wrap;rounded=0;" parent="21" vertex="1">
                    <mxGeometry x="386" y="40" width="160" height="25" as="geometry"/>
                </mxCell>
                <mxCell id="85" style="edgeStyle=none;html=1;entryX=0.5;entryY=0;entryDx=0;entryDy=0;dashed=1;exitX=0.5;exitY=1;exitDx=0;exitDy=0;" parent="21" source="83" target="33" edge="1">
                    <mxGeometry relative="1" as="geometry">
                        <mxPoint x="510" y="91.34615384615381" as="sourcePoint"/>
                        <mxPoint x="440" y="90" as="targetPoint"/>
                    </mxGeometry>
                </mxCell>
                <mxCell id="88" value="" style="edgeStyle=none;html=1;" parent="21" source="87" target="36" edge="1">
                    <mxGeometry relative="1" as="geometry"/>
                </mxCell>
                <mxCell id="87" value="看情况是否ai去重" style="text;html=1;strokeColor=none;fillColor=none;align=center;verticalAlign=middle;whiteSpace=wrap;rounded=0;" parent="21" vertex="1">
                    <mxGeometry x="860" y="116" width="60" height="30" as="geometry"/>
                </mxCell>
                <mxCell id="92" value="" style="edgeStyle=none;html=1;" parent="21" source="90" target="91" edge="1">
                    <mxGeometry relative="1" as="geometry"/>
                </mxCell>
                <mxCell id="90" value="google去重&lt;br&gt;gnews1，gews2" style="rounded=0;whiteSpace=wrap;html=1;" parent="21" vertex="1">
                    <mxGeometry x="970" y="100" width="140" height="60" as="geometry"/>
                </mxCell>
                <mxCell id="91" value="全量根据时间、名称对比" style="rounded=0;whiteSpace=wrap;html=1;" parent="21" vertex="1">
                    <mxGeometry x="1000" y="210" width="80" height="40" as="geometry"/>
                </mxCell>
                <mxCell id="94" value="google对比&lt;br&gt;gnews1，gews2" style="rounded=0;whiteSpace=wrap;html=1;" parent="21" vertex="1">
                    <mxGeometry x="970" y="290" width="140" height="60" as="geometry"/>
                </mxCell>
                <mxCell id="95" value="根据标题进行重复度计算" style="rounded=0;whiteSpace=wrap;html=1;" parent="21" vertex="1">
                    <mxGeometry x="1000" y="400" width="80" height="40" as="geometry"/>
                </mxCell>
                <mxCell id="93" value="" style="edgeStyle=none;html=1;" parent="21" source="94" target="95" edge="1">
                    <mxGeometry relative="1" as="geometry"/>
                </mxCell>
                <mxCell id="97" value="" style="edgeStyle=none;html=1;" parent="21" source="96" target="95" edge="1">
                    <mxGeometry relative="1" as="geometry"/>
                </mxCell>
                <mxCell id="96" value="参考gnews的" style="text;html=1;strokeColor=none;fillColor=none;align=center;verticalAlign=middle;whiteSpace=wrap;rounded=0;" parent="21" vertex="1">
                    <mxGeometry x="880" y="415" width="60" height="30" as="geometry"/>
                </mxCell>
                <mxCell id="26" style="edgeStyle=none;html=1;" parent="1" source="20" target="25" edge="1">
                    <mxGeometry relative="1" as="geometry"/>
                </mxCell>
                <mxCell id="27" style="edgeStyle=none;html=1;entryX=0;entryY=0.5;entryDx=0;entryDy=0;" parent="1" source="18" target="22" edge="1">
                    <mxGeometry relative="1" as="geometry"/>
                </mxCell>
                <mxCell id="31" style="edgeStyle=none;html=1;entryX=1;entryY=0.75;entryDx=0;entryDy=0;" parent="1" source="28" target="20" edge="1">
                    <mxGeometry relative="1" as="geometry">
                        <Array as="points">
                            <mxPoint x="630" y="600"/>
                            <mxPoint x="440" y="600"/>
                            <mxPoint x="440" y="570"/>
                        </Array>
                    </mxGeometry>
                </mxCell>
                <mxCell id="35" value="如果有" style="edgeLabel;html=1;align=center;verticalAlign=middle;resizable=0;points=[];" parent="31" vertex="1" connectable="0">
                    <mxGeometry x="-0.6346" y="2" relative="1" as="geometry">
                        <mxPoint as="offset"/>
                    </mxGeometry>
                </mxCell>
                <mxCell id="76" style="edgeStyle=none;html=1;" parent="1" source="56" target="75" edge="1">
                    <mxGeometry relative="1" as="geometry">
                        <Array as="points">
                            <mxPoint x="130" y="1000"/>
                        </Array>
                    </mxGeometry>
                </mxCell>
                <mxCell id="81" style="edgeStyle=none;html=1;entryX=0;entryY=0.25;entryDx=0;entryDy=0;exitX=1;exitY=0.5;exitDx=0;exitDy=0;" parent="1" source="82" target="43" edge="1">
                    <mxGeometry relative="1" as="geometry">
                        <mxPoint x="320" y="860" as="sourcePoint"/>
                    </mxGeometry>
                </mxCell>
                <mxCell id="82" value="api" style="rounded=0;whiteSpace=wrap;html=1;" parent="1" vertex="1">
                    <mxGeometry x="219.9999999999999" y="840" width="80" height="40" as="geometry"/>
                </mxCell>
                <mxCell id="99" style="edgeStyle=none;html=1;entryX=0.5;entryY=0;entryDx=0;entryDy=0;" parent="1" source="98" target="83" edge="1">
                    <mxGeometry relative="1" as="geometry"/>
                </mxCell>
                <mxCell id="98" value="不会出现这个情况有也是新的" style="text;html=1;strokeColor=none;fillColor=none;align=center;verticalAlign=middle;whiteSpace=wrap;rounded=0;" parent="1" vertex="1">
                    <mxGeometry x="880" y="320" width="180" height="30" as="geometry"/>
                </mxCell>
                <mxCell id="100" value="selector" style="swimlane;whiteSpace=wrap;html=1;" parent="1" vertex="1">
                    <mxGeometry x="-860" y="340" width="360" height="430" as="geometry"/>
                </mxCell>
                <mxCell id="104" value="states&lt;br&gt;渲染-列表" style="rounded=1;whiteSpace=wrap;html=1;" parent="100" vertex="1">
                    <mxGeometry x="15" y="245" width="90" height="40" as="geometry"/>
                </mxCell>
                <mxCell id="107" style="edgeStyle=none;html=1;" parent="100" source="105" target="106" edge="1">
                    <mxGeometry relative="1" as="geometry"/>
                </mxCell>
                <mxCell id="105" value="初始化" style="rounded=0;whiteSpace=wrap;html=1;" parent="100" vertex="1">
                    <mxGeometry x="19.999999999999886" y="60" width="80" height="40" as="geometry"/>
                </mxCell>
                <mxCell id="109" style="edgeStyle=none;html=1;entryX=0.5;entryY=0;entryDx=0;entryDy=0;" parent="100" source="106" target="104" edge="1">
                    <mxGeometry relative="1" as="geometry"/>
                </mxCell>
                <mxCell id="106" value="加载列表" style="rounded=0;whiteSpace=wrap;html=1;" parent="100" vertex="1">
                    <mxGeometry x="20" y="130" width="80" height="40" as="geometry"/>
                </mxCell>
                <mxCell id="110" value="选中" style="rounded=0;whiteSpace=wrap;html=1;" parent="100" vertex="1">
                    <mxGeometry x="229.9999999999999" y="60" width="80" height="40" as="geometry"/>
                </mxCell>
                <mxCell id="111" value="选中通用" style="rounded=0;whiteSpace=wrap;html=1;" parent="100" vertex="1">
                    <mxGeometry x="229.9999999999999" y="200" width="80" height="40" as="geometry"/>
                </mxCell>
                <mxCell id="113" style="edgeStyle=none;html=1;entryX=1;entryY=0.5;entryDx=0;entryDy=0;" parent="100" source="112" target="106" edge="1">
                    <mxGeometry relative="1" as="geometry"/>
                </mxCell>
                <mxCell id="112" value="强制刷新" style="rounded=0;whiteSpace=wrap;html=1;" parent="100" vertex="1">
                    <mxGeometry x="229.9999999999999" y="285" width="80" height="40" as="geometry"/>
                </mxCell>
                <mxCell id="149" style="edgeStyle=none;html=1;" parent="1" source="102" edge="1">
                    <mxGeometry relative="1" as="geometry">
                        <mxPoint x="-290" y="280" as="targetPoint"/>
                    </mxGeometry>
                </mxCell>
                <mxCell id="102" value="main" style="swimlane;whiteSpace=wrap;html=1;" parent="1" vertex="1">
                    <mxGeometry x="-460" y="340" width="360" height="430" as="geometry"/>
                </mxCell>
                <mxCell id="118" style="edgeStyle=none;html=1;entryX=0;entryY=0.5;entryDx=0;entryDy=0;" parent="102" source="115" target="117" edge="1">
                    <mxGeometry relative="1" as="geometry"/>
                </mxCell>
                <mxCell id="115" value="states：selected" style="rounded=1;whiteSpace=wrap;html=1;" parent="102" vertex="1">
                    <mxGeometry x="47" y="60" width="90" height="40" as="geometry"/>
                </mxCell>
                <mxCell id="117" value="Effect&lt;br&gt;更改路由" style="rounded=0;whiteSpace=wrap;html=1;" parent="102" vertex="1">
                    <mxGeometry x="219.9999999999999" y="60" width="80" height="40" as="geometry"/>
                </mxCell>
                <mxCell id="125" style="edgeStyle=none;html=1;" parent="102" source="122" target="124" edge="1">
                    <mxGeometry relative="1" as="geometry"/>
                </mxCell>
                <mxCell id="122" value="初始化" style="rounded=0;whiteSpace=wrap;html=1;" parent="102" vertex="1">
                    <mxGeometry x="209.9999999999999" y="170" width="80" height="40" as="geometry"/>
                </mxCell>
                <mxCell id="150" style="edgeStyle=none;html=1;" parent="102" source="124" target="115" edge="1">
                    <mxGeometry relative="1" as="geometry"/>
                </mxCell>
                <mxCell id="151" style="edgeStyle=none;html=1;entryX=0.25;entryY=1;entryDx=0;entryDy=0;" parent="102" source="124" target="129" edge="1">
                    <mxGeometry relative="1" as="geometry"/>
                </mxCell>
                <mxCell id="124" value="读取路由的select" style="rounded=0;whiteSpace=wrap;html=1;" parent="102" vertex="1">
                    <mxGeometry x="100" y="170" width="80" height="40" as="geometry"/>
                </mxCell>
                <mxCell id="129" value="states：whole" style="rounded=1;whiteSpace=wrap;html=1;" parent="102" vertex="1">
                    <mxGeometry x="47" y="120" width="90" height="40" as="geometry"/>
                </mxCell>
                <mxCell id="130" value="Effect&lt;br&gt;更改路由" style="rounded=0;whiteSpace=wrap;html=1;" parent="102" vertex="1">
                    <mxGeometry x="219.9999999999999" y="120" width="80" height="40" as="geometry"/>
                </mxCell>
                <mxCell id="128" style="edgeStyle=none;html=1;entryX=0;entryY=0.5;entryDx=0;entryDy=0;" parent="102" source="129" target="130" edge="1">
                    <mxGeometry relative="1" as="geometry"/>
                </mxCell>
                <mxCell id="103" value="report" style="swimlane;whiteSpace=wrap;html=1;" parent="1" vertex="1">
                    <mxGeometry x="-860" y="810" width="360" height="430" as="geometry"/>
                </mxCell>
                <mxCell id="152" value="props：selected" style="rounded=1;whiteSpace=wrap;html=1;" parent="103" vertex="1">
                    <mxGeometry x="250" y="40" width="90" height="40" as="geometry"/>
                </mxCell>
                <mxCell id="153" value="props：whole" style="rounded=1;whiteSpace=wrap;html=1;" parent="103" vertex="1">
                    <mxGeometry x="250" y="100" width="90" height="40" as="geometry"/>
                </mxCell>
                <mxCell id="155" value="全量数据" style="rounded=0;whiteSpace=wrap;html=1;" parent="103" vertex="1">
                    <mxGeometry x="120" y="40" width="80" height="40" as="geometry"/>
                </mxCell>
                <mxCell id="156" value="查询对应日期的数据" style="rounded=0;whiteSpace=wrap;html=1;" parent="103" vertex="1">
                    <mxGeometry x="119.99999999999989" y="110" width="80" height="40" as="geometry"/>
                </mxCell>
                <mxCell id="116" style="edgeStyle=none;html=1;entryX=0;entryY=0.5;entryDx=0;entryDy=0;" parent="1" source="110" target="115" edge="1">
                    <mxGeometry relative="1" as="geometry"/>
                </mxCell>
                <mxCell id="132" value="user" style="swimlane;whiteSpace=wrap;html=1;" parent="1" vertex="1">
                    <mxGeometry x="-460" y="100" width="300" height="180" as="geometry"/>
                </mxCell>
                <mxCell id="135" style="edgeStyle=none;html=1;" parent="132" source="133" target="134" edge="1">
                    <mxGeometry relative="1" as="geometry"/>
                </mxCell>
                <mxCell id="133" value="初始化" style="rounded=0;whiteSpace=wrap;html=1;" parent="132" vertex="1">
                    <mxGeometry x="79.99999999999989" y="50" width="80" height="40" as="geometry"/>
                </mxCell>
                <mxCell id="134" value="强制要求登录" style="rounded=0;whiteSpace=wrap;html=1;" parent="132" vertex="1">
                    <mxGeometry x="80" y="120" width="80" height="40" as="geometry"/>
                </mxCell>
                <mxCell id="157" style="edgeStyle=none;html=1;entryX=0;entryY=0.5;entryDx=0;entryDy=0;exitX=1;exitY=0.25;exitDx=0;exitDy=0;" parent="1" source="106" target="18" edge="1">
                    <mxGeometry relative="1" as="geometry"/>
                </mxCell>
                <mxCell id="158" style="edgeStyle=none;html=1;entryX=0;entryY=0.5;entryDx=0;entryDy=0;" parent="1" source="156" target="20" edge="1">
                    <mxGeometry relative="1" as="geometry"/>
                </mxCell>
                <mxCell id="159" style="edgeStyle=none;html=1;entryX=0.75;entryY=0;entryDx=0;entryDy=0;" parent="1" source="115" target="152" edge="1">
                    <mxGeometry relative="1" as="geometry"/>
                </mxCell>
                <mxCell id="160" style="edgeStyle=none;html=1;entryX=1;entryY=0.5;entryDx=0;entryDy=0;" parent="1" source="129" target="153" edge="1">
                    <mxGeometry relative="1" as="geometry"/>
                </mxCell>
                <mxCell id="161" style="edgeStyle=none;html=1;entryX=0;entryY=0.75;entryDx=0;entryDy=0;" parent="1" source="111" target="129" edge="1">
                    <mxGeometry relative="1" as="geometry"/>
                </mxCell>
                <mxCell id="162" style="edgeStyle=none;html=1;entryX=0;entryY=0.25;entryDx=0;entryDy=0;" edge="1" parent="1" source="155" target="56">
                    <mxGeometry relative="1" as="geometry"/>
                </mxCell>
            </root>
        </mxGraphModel>
    </diagram>
</mxfile>